<svg width="512" height="512" viewBox="0 0 512 512" fill="none" xmlns="http://www.w3.org/2000/svg">
<rect width="512" height="512" fill="white"/>
<path d="M257.539 52.9844L262.414 53.0859C265.767 53.1801 269.119 53.3249 272.469 53.4922L277.344 53.7969L282.219 54C286.737 54.2258 291.247 55.143 295.523 56.6406L300.094 58.2656L304.766 59.8906C307.175 60.7343 309.644 61.3115 312.078 61.7188L316.852 62.5312L321.727 63.3438C325.064 63.8994 328.419 64.4897 331.781 65.1719L336.656 66.1875L341.43 67.2031C346.304 68.1923 350.901 70.0314 355.039 72.7891L359.102 75.5312L363.266 78.2734C365.646 79.8616 368.093 81.3207 370.578 82.6406L374.844 84.9766L379.211 87.3125C383.184 89.4253 386.773 92.0752 389.977 95.2344L393.531 98.6875L396.984 102.039C399.156 104.183 401.378 106.353 403.688 108.438L407.445 111.789L411.102 115.141C415.378 119.011 418.375 123.826 419.938 129.359L421.258 134.234L422.68 139.008C423.381 141.496 424.258 143.854 425.32 146.016L427.453 150.383L429.586 154.648C431.37 158.279 432.777 162.117 433.852 166.023L436.492 175.367C437.437 178.802 438.246 182.324 438.93 185.828L440.758 195.375C441.434 198.842 442.04 202.325 442.484 205.836L443.703 215.586C444.161 219.219 444.411 222.894 444.516 226.555L444.617 231.43L444.82 236.305C444.942 240.563 444.553 244.813 443.703 249L442.688 253.773L441.773 258.648C441.443 260.277 441.375 261.972 441.672 263.727L442.484 268.602L443.398 273.578C444.281 278.788 443.974 284.037 442.484 289.117L439.641 298.664C438.803 301.51 438.103 304.364 437.508 307.195L435.477 316.742C435.016 318.946 434.837 321.263 434.867 323.648V328.625L434.969 333.602C435.025 338.107 434.408 342.567 433.242 346.906L432.023 351.68L430.703 356.352C429.418 361.134 427.258 365.582 424.305 369.555L421.359 373.617L418.312 377.578C416.797 379.616 415.59 381.747 414.555 383.875L410.289 392.609C408.008 397.315 404.769 401.387 400.641 404.594L392.922 410.484C390.77 412.157 388.727 414.012 386.727 415.969L379.617 422.875C375.833 426.567 371.343 429.273 366.312 430.898L356.969 433.945C354.097 434.873 351.263 435.911 348.539 436.992L344.07 438.719L339.602 440.547C337.221 441.491 334.84 442.645 332.492 444L328.125 446.438L323.859 448.977C319.894 451.267 315.612 452.903 311.164 453.953L306.391 455.172L301.617 456.289C297.213 457.329 292.634 457.741 288.109 457.508L283.234 457.203L278.258 457C275.718 456.869 273.206 456.891 270.742 457.203L260.992 458.422C256.635 458.975 252.243 459.006 247.891 458.422L243.016 457.812L238.242 457.102C235.222 456.697 232.128 456.337 229.102 456.086L224.227 455.68L219.453 455.273C215.372 454.934 211.304 454.269 207.367 453.141L202.594 451.719L183.906 446.438L179.133 445.016C174.541 443.707 170.306 441.621 166.438 438.82L162.477 435.977L158.414 433.133C155.549 431.057 152.774 428.862 150.086 426.633L146.43 423.586L142.672 420.539C139.945 418.278 137.299 415.895 134.75 413.43L127.844 406.727C125.647 404.602 123.349 402.507 121.039 400.43L117.484 397.078L113.828 393.828C111.142 391.413 108.493 388.944 106.008 386.312L102.656 382.656L99.3047 379.102C96.4327 376.058 93.8546 372.727 91.6875 369.148L86.6094 360.82C85.0844 358.302 83.5322 355.8 81.8359 353.406L78.9922 349.445L76.1484 345.383C73.5347 341.695 71.4162 337.686 69.9531 333.398L68.4297 328.727L66.8047 324.055C66.007 321.717 65.0354 319.509 63.8594 317.453L61.4219 313.188L58.9844 309.023C57.134 305.798 55.5048 302.408 54.0078 298.969L51.9766 294.5L50.0469 290.031C47.9749 285.271 47.0451 280.188 47.2031 275L47.3047 270.023L47.5078 265.148C47.5362 264.247 47.4967 263.491 47.5078 262.914C46.3383 256.97 49.2136 250.907 55.0234 248.492C55.6118 248.248 56.2519 248.239 56.8516 248.086C56.9432 247.434 57.1042 246.868 57.1562 246.359L58.1719 236.609C58.4956 233.403 58.7816 230.183 59.0859 226.961L59.5938 222.086L60 217.211C60.351 213.496 60.9783 209.79 61.7266 206.141L62.6406 201.367L63.6562 196.594C64.4751 192.603 65.6565 188.694 67.2109 184.914L69.0391 180.344L70.9688 175.875C71.8861 173.644 72.5491 171.313 73 168.969L73.9141 164.195L74.8281 159.32C75.589 155.36 76.7254 151.501 78.1797 147.742L79.9062 143.172L81.7344 138.602C83.1725 134.888 84.8803 131.265 86.9141 127.836L89.4531 123.672L91.8906 119.406C93.8635 116.081 96.0714 112.896 98.4922 109.859L101.641 106L104.688 102.141C107.739 98.3136 111.429 95.1629 115.656 92.6953L119.922 90.1562L124.188 87.7188C127.4 85.8447 130.685 84.07 134.039 82.5391L138.508 80.6094L142.875 78.5781C146.348 76.9932 149.991 75.6324 153.641 74.5156L158.211 73.0938L162.883 71.6719C165.81 70.7761 168.732 69.7461 171.617 68.7266L176.188 67.1016L180.859 65.4766C183.91 64.3983 187.016 63.3112 190.102 62.2266L194.672 60.6016L199.344 58.9766C203.287 57.5903 207.391 56.6759 211.531 56.1328L216.406 55.4219L221.18 54.8125C224.675 54.354 228.228 54.0401 231.742 53.7969L236.719 53.3906L241.594 53.0859C245.248 52.8348 248.904 52.7817 252.562 52.8828L257.539 52.9844ZM243.32 78.9844L238.445 79.3906L233.57 79.6953C230.583 79.9014 227.605 80.22 224.633 80.6094L214.883 81.8281C212.534 82.1363 210.225 82.7641 207.977 83.5547L203.305 85.1797L198.734 86.8047C195.646 87.8903 192.545 88.9757 189.492 90.0547L184.922 91.6797L180.25 93.3047C177.031 94.4416 173.766 95.4538 170.5 96.4531L165.828 97.875L161.156 99.3984C158.618 100.178 156.158 101.14 153.742 102.242L149.273 104.172L144.805 106.203C142.253 107.368 139.76 108.723 137.289 110.164L133.023 112.602L128.758 115.141C127.305 115.989 126.053 117.069 125 118.391L118.906 126.109C117.224 128.22 115.694 130.422 114.336 132.711L111.797 136.875L109.258 141.141C107.969 143.316 106.92 145.598 106.008 147.945L104.18 152.516L102.453 157.086C101.563 159.385 100.89 161.77 100.422 164.195L99.5078 169.07L98.4922 173.844C97.7121 177.908 96.6156 181.892 95.0391 185.727L93.1094 190.297L91.2812 194.867C90.3542 197.127 89.6347 199.419 89.1484 201.773L88.1328 206.648L87.1172 211.422C86.5622 214.135 86.1604 216.879 85.8984 219.648L85.4922 224.523L84.9844 229.398C84.6747 232.677 84.3998 235.987 84.0703 239.25L83.5625 244.125L83.0547 248.898C82.6528 252.879 81.6951 258.315 80.3125 264.742L78.2812 274.188L78.1797 274.086C77.6361 276.785 76.1714 278.914 74.3203 280.688L75.8438 284.141L77.7734 288.609C78.8879 291.17 80.1724 293.651 81.5312 296.023L83.9688 300.289L86.4062 304.453C88.4329 307.986 90.055 311.74 91.3828 315.625L93.0078 320.297L94.6328 325.07C95.2988 327.007 96.2312 328.739 97.375 330.352L100.117 334.414L102.961 338.375C105.024 341.284 107 344.256 108.852 347.312L111.391 351.477L113.93 355.742C115.145 357.748 116.583 359.621 118.195 361.328L124.898 368.438C126.902 370.559 129.034 372.587 131.195 374.531L138.508 381.031C141.045 383.313 143.499 385.696 145.922 388.039L152.828 394.742C154.9 396.746 157.112 398.593 159.328 400.43L162.984 403.578L166.742 406.625C168.986 408.484 171.337 410.362 173.75 412.109L181.672 417.797C183.08 418.815 184.576 419.555 186.242 420.031L191.016 421.352L195.688 422.773C198.835 423.668 201.997 424.513 205.133 425.414L209.805 426.734L214.477 428.156C216.785 428.819 219.192 429.176 221.586 429.375L231.336 430.188C234.786 430.475 238.257 430.844 241.695 431.305L246.57 432.016L251.344 432.625C253.462 432.909 255.616 432.895 257.742 432.625L267.492 431.406C271.494 430.9 275.528 430.791 279.578 431L284.555 431.203L289.531 431.508C291.605 431.612 293.641 431.468 295.625 431L300.398 429.781L305.172 428.664C307.112 428.206 308.967 427.46 310.758 426.43L315.125 423.992L319.492 421.453C322.887 419.495 326.372 417.797 329.953 416.375L334.422 414.547L338.992 412.82C342.247 411.529 345.555 410.259 348.945 409.164L353.617 407.641L358.391 406.117C359.578 405.726 360.547 405.151 361.438 404.289L368.547 397.383C371.239 394.75 374.034 392.255 376.977 389.969L380.836 387.023L384.695 383.977C385.648 383.229 386.403 382.415 386.93 381.336L388.961 376.969L391.094 372.602C392.866 368.945 395.035 365.449 397.492 362.141L400.438 358.078L403.484 354.016C404.509 352.63 405.201 351.197 405.617 349.648L406.938 344.875L408.156 340.102C408.688 338.111 408.996 336.047 408.969 333.906L408.867 328.93V323.953C408.814 319.696 409.217 315.491 410.086 311.359L411 306.586L412.016 301.812C412.752 298.315 413.634 294.826 414.656 291.352L417.5 281.805C417.867 280.559 417.936 279.324 417.703 277.945L416.078 267.992C415.262 263.152 415.305 258.279 416.281 253.469L417.195 248.695L418.211 243.82C418.67 241.559 418.885 239.271 418.82 237.016L418.719 232.141L418.516 227.266C418.435 224.445 418.259 221.633 417.906 218.836L416.688 209.086C416.316 206.154 415.83 203.243 415.266 200.352L414.352 195.578L413.336 190.805C412.777 187.944 412.176 185.073 411.406 182.273L408.766 172.93C408.122 170.59 407.288 168.285 406.227 166.125L404.094 161.758L401.961 157.492C400.181 153.87 398.707 150.06 397.594 146.117L396.273 141.242L394.953 136.469C394.703 135.583 394.25 134.994 393.633 134.438L386.32 127.734C383.727 125.394 381.156 123.046 378.703 120.625L371.797 113.719C370.387 112.326 368.775 111.199 367.023 110.266L362.656 107.93L358.391 105.695C355.125 103.961 351.942 101.974 348.844 99.9062L344.68 97.1641L340.617 94.4219C339.282 93.5325 337.817 93.0133 336.25 92.6953L331.477 91.6797L326.602 90.6641C323.54 90.0429 320.486 89.5429 317.461 89.0391L312.586 88.2266L307.812 87.4141C303.888 86.7595 300.019 85.7924 296.234 84.4688L291.562 82.7422L286.891 81.1172C284.954 80.4389 282.994 80.1027 281 80L276.125 79.6953L271.148 79.4922C268.001 79.3351 264.853 79.1745 261.703 79.0859L256.828 78.9844L251.852 78.8828C249.018 78.8043 246.153 78.789 243.32 78.9844Z" fill="black"/>
<path d="M177.324 276.52L182.535 278.559L185.027 283.543L190.012 293.285C191.427 296.093 192.648 298.156 193.637 299.516C194.659 300.917 195.089 301.248 194.883 301.102L199.414 304.273L203.945 307.559C205.327 308.539 206.751 309.072 208.25 309.371L213.574 310.391L218.898 311.523C221.909 312.123 224.934 312.519 227.961 312.77L233.398 313.223L238.723 313.676C242.541 313.992 246.42 314.417 250.277 314.922L261.152 316.281C262.546 316.463 263.72 316.355 264.891 315.941L275.086 312.316C276.167 311.93 276.95 311.581 277.465 311.297C277.958 311.024 278.144 310.844 278.145 310.844L280.977 308.238L286.641 303.254C286.999 302.968 287.766 302.343 288.68 301.781C289.041 301.559 290.262 300.958 291.852 300.422C292.623 300.163 294.387 299.593 296.723 299.629C298.236 299.653 300.378 300.196 302.727 301.328C304.428 302.061 305.968 303.095 307.258 304.387L307.484 304.613L308.391 305.633L309.07 306.766L309.297 307.105H309.07C310.471 309.346 311.46 311.857 311.449 314.695C311.424 320.773 307.7 325.929 302.387 328.062L300.461 329.875L297.516 332.367C293.773 335.737 289.305 338.019 284.828 339.617L274.633 343.242C269.057 345.227 263.261 345.815 257.414 345.055L251.977 344.375L246.426 343.695C243.034 343.252 239.678 342.838 236.344 342.562L230.906 342.109L225.582 341.656C221.444 341.314 217.323 340.772 213.234 339.957L207.91 338.824L202.586 337.805C196.987 336.689 191.823 334.422 187.18 331.121L182.648 327.949L178.117 324.664C172.093 320.373 167.579 313.38 164.07 306.426L159.199 296.57L159.312 296.457C157.503 292.897 156.951 288.687 158.52 284.676C160.724 279.092 166.008 275.635 171.66 275.5L177.324 276.52Z" fill="black"/>
<path d="M220.41 163.18C228.036 165.626 232.258 173.906 229.812 181.531L229.586 182.211L229.246 182.777L224.941 192.859C222.17 199.311 220.672 203.522 220.07 205.887L218.711 211.211L217.465 216.535C216.63 219.835 216.098 222.069 215.879 223.445L214.973 229.562C214.798 230.671 214.485 231.998 214.18 233.188C214.062 233.645 213.718 234.948 213.047 236.359C212.76 236.961 211.884 238.785 210.102 240.551C208.203 242.426 202.735 246.423 195.375 244.062L194.922 243.836H194.582L194.469 243.609H194.016L192.883 243.043L192.316 242.816L192.43 242.59C186.286 239.393 183.007 232.416 185.18 225.598V225.484L187.219 219.367V219.027C187.638 216.364 188.332 213.058 189.258 209.398L191.977 198.75C193.163 194.082 195.4 188.099 198.32 181.305L202.625 171.336L202.738 171.449C205.605 164.578 213.19 160.875 220.41 163.18Z" fill="black"/>
<path d="M299.613 173.727L299.84 173.84C299.976 173.867 300.157 173.808 300.293 173.84L300.52 174.066H301.086L302.219 174.52L302.785 174.859L302.672 174.973C308.961 177.702 312.765 184.364 311.168 191.285L311.055 191.398L309.469 198.195C309.256 200.223 308.878 202.779 308.449 205.785L307.77 211.109L306.977 216.434C306.274 221.318 304.551 227.527 302.219 234.445L298.707 244.527L298.594 244.414C296.303 251.497 289.104 255.861 281.715 254.156C273.922 252.348 269.04 244.508 270.84 236.711V236.598L271.293 235.238L274.691 225.156C276.91 218.574 277.896 214.394 278.203 212.242L278.996 207.031L279.789 201.707C280.282 198.249 280.566 195.873 280.695 194.457L280.922 191.738L281.148 189.133C281.24 188.127 281.463 186.75 281.715 185.508C281.814 185.02 282.038 183.563 282.734 181.996C283.05 181.289 283.99 179.348 285.906 177.465C288.167 175.25 293.124 172.125 299.613 173.727Z" fill="black"/>
</svg>
