<svg width="512" height="512" viewBox="0 0 512 512" fill="none" xmlns="http://www.w3.org/2000/svg">
<path d="M72.4886 268.12C71.2638 274.634 75.551 280.907 82.0643 282.131C88.5775 283.356 94.8504 279.069 96.0752 272.556L72.4886 268.12ZM84.3004 270.24L72.5653 267.732L72.5344 267.877L72.5071 268.022L84.3004 270.24ZM86.1689 261.495L74.4338 258.987L86.1689 261.495ZM89.3841 239.301L77.4438 238.105L89.3841 239.301ZM90.2483 230.319L78.2991 229.216H78.2991L90.2483 230.319ZM92.3825 212.4L80.6176 210.036L92.3825 212.4ZM96.7468 194.923L85.6177 190.435L96.7468 194.923ZM104.245 168.93L92.4339 166.807L104.245 168.93ZM106.581 160.233L95.2978 156.149L106.581 160.233ZM108.118 155.988L119.402 160.072L108.118 155.988ZM109.655 151.742L120.939 155.826L109.655 151.742ZM115.464 139.522L104.887 133.855L115.464 139.522ZM122.349 127.809L112.514 120.935L122.349 127.809ZM127.575 120.332L117.74 113.458L127.575 120.332ZM133.958 114.031L140.704 123.955L133.958 114.031ZM137.728 111.468L130.983 101.544L137.728 111.468ZM141.498 108.906L134.753 98.9815L141.498 108.906ZM149.256 104.266L143.712 93.6237L149.256 104.266ZM153.244 102.188L158.788 112.831L153.244 102.188ZM157.231 100.111L151.687 89.4686L157.231 100.111ZM165.483 96.6065L169.291 107.986L165.483 96.6065ZM169.746 95.1796L165.938 83.8L169.746 95.1796ZM186.671 89.1117L190.96 100.319L186.671 89.1117ZM190.87 87.5047L186.58 76.2975L190.87 87.5047ZM199.306 84.2586L194.976 73.0668L199.306 84.2586ZM207.78 80.9806L203.45 69.7888L207.78 80.9806ZM216.484 78.5942L214.504 66.7587L216.484 78.5942ZM234.386 75.8659L233.098 63.9353L234.386 75.8659ZM243.384 74.8939L244.673 86.8245L243.384 74.8939ZM270.488 74.1817L270.548 62.1819L270.488 74.1817ZM275.009 74.2042L274.949 86.2041L275.009 74.2042ZM279.53 74.2267L279.47 86.2265L279.53 74.2267ZM288.43 75.5437L285.028 87.0514L288.43 75.5437ZM297.188 78.1328L300.59 66.6251L297.188 78.1328ZM306.027 79.9186L304.713 91.8465L306.027 79.9186ZM323.922 82.0098L325.549 70.1206L323.922 82.0098ZM341.441 86.0961L347.317 75.6329L341.441 86.0961ZM349.395 90.5625L343.519 101.026L349.395 90.5625ZM357.536 94.5299L362.149 83.4519L357.536 94.5299ZM365.866 97.9982L370.479 86.9202L365.866 97.9982ZM373.581 102.511L380.977 93.0616L373.581 102.511ZM377.131 105.29L369.735 114.74L377.131 105.29ZM380.682 108.069L373.286 117.519L380.682 108.069ZM388.026 113.415L381.302 123.354L388.026 113.415ZM395.615 118.549L402.339 108.61L395.615 118.549ZM401.29 125.345L412.254 120.469L401.29 125.345ZM403.17 129.574L392.206 134.45L403.17 129.574ZM405.051 133.802L394.086 138.678L405.051 133.802ZM409.379 141.756L419.408 135.166L409.379 141.756ZM411.827 145.482L421.856 138.892L411.827 145.482ZM414.275 149.207L404.247 155.797L414.275 149.207ZM418.351 157.108L407.169 161.465L418.351 157.108ZM419.978 161.284L431.159 156.927L419.978 161.284ZM421.605 165.46L410.424 169.817L421.605 165.46ZM424.46 173.962L436.004 170.686L424.46 173.962ZM426.914 182.613L415.37 185.889L426.914 182.613ZM429.03 191.361L440.795 188.997L429.03 191.361ZM430.808 200.205L419.043 202.57L430.808 200.205ZM432.126 209.12L420.181 210.264L432.126 209.12ZM432.986 218.106L421.041 219.249L432.986 218.106ZM432.772 227.107L444.651 228.804L432.772 227.107ZM431.484 236.123L443.363 237.82L431.484 236.123ZM431.831 245.162L443.554 242.598L431.831 245.162ZM432.821 249.692L421.098 252.256L432.821 249.692ZM433.812 254.223L445.535 251.659L433.812 254.223ZM433.686 263.191L445.323 266.12L433.686 263.191ZM431.452 272.068L443.089 274.997L431.452 272.068ZM429.61 280.942L441.453 282.876L429.61 280.942ZM428.885 285.379L440.728 287.313L428.885 285.379ZM428.161 289.815L416.318 287.881L428.161 289.815ZM427.762 298.849L415.793 299.698L427.762 298.849ZM428.089 303.446L416.119 304.295L428.089 303.446ZM428.415 308.043L440.385 307.194L428.415 308.043ZM427.922 317.095L416.12 314.925L427.922 317.095ZM426.284 326.003L438.086 328.173L426.284 326.003ZM423.227 334.524L433.74 340.31L423.227 334.524ZM418.751 342.657L429.264 348.443L418.751 342.657ZM415.551 351.125L427.274 353.688L415.551 351.125ZM413.627 359.927L401.904 357.364L413.627 359.927ZM410.052 367.956L419.789 374.97L410.052 367.956ZM404.826 375.212L395.089 368.198L404.826 375.212ZM399.81 382.699L409.996 389.042L399.81 382.699ZM395.003 390.418L405.19 396.761L395.003 390.418ZM388.565 396.396L394.143 407.021L388.565 396.396ZM380.494 400.634L374.916 390.009L380.494 400.634ZM372.581 404.934L378.467 415.392L372.581 404.934ZM364.827 409.298L358.942 398.84L364.827 409.298ZM357.281 414.267L364.538 423.823L357.281 414.267ZM349.942 419.84L342.685 410.283L349.942 419.84ZM342.028 424.252L346.321 435.458L342.028 424.252ZM337.783 425.878L333.49 414.672L337.783 425.878ZM333.539 427.504L329.246 416.298L333.539 427.504ZM324.734 429.555L323.62 417.607L324.734 429.555ZM315.612 430.405L316.725 442.354L315.612 430.405ZM306.687 432.034L303.497 420.466L306.687 432.034ZM297.96 434.441L301.151 446.009L297.96 434.441ZM289.075 435.643L289.08 423.643L289.075 435.643ZM280.032 435.639L280.037 423.639L280.032 435.639ZM271.006 435.816L270.53 423.825L271.006 435.816ZM261.998 436.173L262.474 448.164L261.998 436.173ZM253.028 435.737L254.666 423.849L253.028 435.737ZM244.096 434.505L242.457 446.393L244.096 434.505ZM235.127 433.505L236.15 421.548L235.127 433.505ZM226.121 432.734L227.144 420.778L226.121 432.734ZM217.422 430.648L212.915 441.77L217.422 430.648ZM209.029 427.247L213.536 416.126L209.029 427.247ZM200.789 423.704L195.814 434.624L200.789 423.704ZM192.702 420.02L197.677 409.1L192.702 420.02ZM184.864 415.906L191.028 405.61L184.864 415.906ZM181.069 413.634L187.233 403.338L181.069 413.634ZM177.274 411.362L171.11 421.658L177.274 411.362ZM169.674 406.686L163.265 416.831L169.674 406.686ZM162.062 401.877L168.471 391.732L162.062 401.877ZM154.78 396.556L147.066 405.748L154.78 396.556ZM151.304 393.639L159.017 384.446L151.304 393.639ZM147.827 390.721L140.114 399.914L147.827 390.721ZM141.67 384.152L131.997 391.255L141.67 384.152ZM138.988 380.501L148.661 373.398L138.988 380.501ZM136.307 376.849L145.979 369.746L136.307 376.849ZM130.695 369.765L121.568 377.556L130.695 369.765ZM127.766 366.333L136.892 358.542L127.766 366.333ZM124.836 362.9L133.963 355.109L124.836 362.9ZM119.997 355.31L130.902 350.303L119.997 355.31ZM116.178 346.995L105.273 352.003L116.178 346.995ZM106.072 332.127L96.5426 339.421L106.072 332.127ZM100.664 324.897L90.9756 331.977L100.664 324.897ZM97.9893 321.236L107.678 314.156L97.9893 321.236ZM95.3142 317.575L85.6254 324.655L95.3142 317.575ZM91.1342 309.643L79.8162 313.631L91.1342 309.643ZM89.6293 305.372L78.3113 309.36L89.6293 305.372ZM88.1245 301.101L99.4425 297.113L88.1245 301.101ZM85.0813 292.612L96.3549 288.5L85.0813 292.612ZM82.0047 284.177L70.7312 288.288L82.0047 284.177ZM79.8461 275.479L67.9595 277.125L79.8461 275.479ZM78.6054 266.52L90.492 264.874L78.6054 266.52ZM78.2388 261.472L67.2834 256.575L78.2388 261.472ZM78.4926 260.904L67.8582 255.345L67.6875 255.671L67.5371 256.008L78.4926 260.904ZM79.0377 259.862L89.672 265.421L92.2483 260.494L90.1542 255.343L79.0377 259.862ZM90.1165 255.25C87.6206 249.11 80.6203 246.157 74.4808 248.653C68.3413 251.148 65.3876 258.149 67.8835 264.288L90.1165 255.25ZM84.2819 270.338L96.0752 272.556L96.0937 272.457L84.3004 270.24L72.5071 268.022L72.4886 268.12L84.2819 270.338ZM84.3004 270.24L96.0355 272.747L97.904 264.002L86.1689 261.495L74.4338 258.987L72.5653 267.732L84.3004 270.24ZM86.1689 261.495L97.904 264.002C99.1709 258.073 100.059 253.135 100.427 249.462L88.4863 248.267L76.546 247.071C76.3152 249.376 75.6582 253.257 74.4338 258.987L86.1689 261.495ZM88.4863 248.267L100.427 249.462L100.875 244.98L88.9352 243.784L76.9949 242.588L76.546 247.071L88.4863 248.267ZM88.9352 243.784L100.875 244.98L101.324 240.497L89.3841 239.301L77.4438 238.105L76.9949 242.588L88.9352 243.784ZM89.3841 239.301L101.324 240.497C101.627 237.477 101.918 234.452 102.197 231.422L90.2483 230.319L78.2991 229.216C78.0251 232.185 77.74 235.148 77.4438 238.105L89.3841 239.301ZM90.2483 230.319L102.197 231.422L102.613 226.922L90.6636 225.82L78.7144 224.717L78.2991 229.216L90.2483 230.319ZM90.6636 225.82L102.613 226.922L103.028 222.423L91.0789 221.32L79.1297 220.217L78.7144 224.717L90.6636 225.82ZM91.0789 221.32L103.028 222.423C103.266 219.846 103.639 217.294 104.147 214.764L92.3825 212.4L80.6176 210.036C79.9415 213.401 79.4455 216.795 79.1297 220.217L91.0789 221.32ZM92.3825 212.4L104.147 214.764L105.036 210.343L93.2708 207.979L81.5059 205.615L80.6176 210.036L92.3825 212.4ZM93.2708 207.979L105.036 210.343L105.924 205.922L94.1591 203.558L82.3942 201.194L81.5059 205.615L93.2708 207.979ZM94.1591 203.558L105.924 205.922C106.369 203.706 107.018 201.539 107.876 199.411L96.7468 194.923L85.6177 190.435C84.2099 193.926 83.1334 197.515 82.3942 201.194L94.1591 203.558ZM96.7468 194.923L107.876 199.411L109.575 195.197L98.4463 190.709L87.3172 186.221L85.6177 190.435L96.7468 194.923ZM98.4463 190.709L109.575 195.197L111.275 190.983L100.146 186.495L89.0166 182.007L87.3172 186.221L98.4463 190.709ZM100.146 186.495L111.275 190.983C112.714 187.414 113.776 183.734 114.456 179.953L102.645 177.83L90.8342 175.708C90.4473 177.861 89.8434 179.957 89.0166 182.007L100.146 186.495ZM102.645 177.83L114.456 179.953L115.256 175.503L103.445 173.38L91.634 171.257L90.8342 175.708L102.645 177.83ZM103.445 173.38L115.256 175.503L116.055 171.052L104.245 168.93L92.4339 166.807L91.634 171.257L103.445 173.38ZM104.245 168.93L116.055 171.052C116.469 168.752 117.071 166.51 117.865 164.318L106.581 160.233L95.2978 156.149C94.042 159.618 93.0869 163.173 92.4339 166.807L104.245 168.93ZM106.581 160.233L117.865 164.318L119.402 160.072L108.118 155.988L96.8346 151.903L95.2978 156.149L106.581 160.233ZM108.118 155.988L119.402 160.072L120.939 155.826L109.655 151.742L98.3715 147.657L96.8346 151.903L108.118 155.988ZM109.655 151.742L120.939 155.826C121.766 153.54 122.754 151.325 123.905 149.176L113.328 143.509L102.751 137.842C101.054 141.009 99.5933 144.282 98.3715 147.657L109.655 151.742ZM113.328 143.509L123.905 149.176L126.042 145.189L115.464 139.522L104.887 133.855L102.751 137.842L113.328 143.509ZM115.464 139.522L126.042 145.189L128.178 141.202L117.6 135.535L107.023 129.868L104.887 133.855L115.464 139.522ZM117.6 135.535L128.178 141.202C129.377 138.964 130.712 136.792 132.185 134.684L122.349 127.809L112.514 120.935C110.503 123.812 108.672 126.79 107.023 129.868L117.6 135.535ZM122.349 127.809L132.185 134.684L134.798 130.945L124.962 124.071L115.127 117.196L112.514 120.935L122.349 127.809ZM124.962 124.071L134.798 130.945L137.411 127.206L127.575 120.332L117.74 113.458L115.127 117.196L124.962 124.071ZM127.575 120.332L137.411 127.206C138.318 125.909 139.398 124.843 140.704 123.955L133.958 114.031L127.213 104.106C123.492 106.636 120.317 109.77 117.74 113.458L127.575 120.332ZM133.958 114.031L140.704 123.955L144.474 121.393L137.728 111.468L130.983 101.544L127.213 104.106L133.958 114.031ZM137.728 111.468L144.474 121.393L148.244 118.83L141.498 108.906L134.753 98.9815L130.983 101.544L137.728 111.468ZM141.498 108.906L148.244 118.83C150.377 117.381 152.562 116.075 154.8 114.908L149.256 104.266L143.712 93.6237C140.633 95.2274 137.647 97.0144 134.753 98.9815L141.498 108.906ZM149.256 104.266L154.8 114.908L158.788 112.831L153.244 102.188L147.699 91.5462L143.712 93.6237L149.256 104.266ZM153.244 102.188L158.788 112.831L162.776 110.753L157.231 100.111L151.687 89.4686L147.699 91.5462L153.244 102.188ZM157.231 100.111L162.776 110.753C164.876 109.659 167.046 108.738 169.291 107.986L165.483 96.6065L161.674 85.2269C158.235 86.378 154.904 87.7927 151.687 89.4686L157.231 100.111ZM165.483 96.6065L169.291 107.986L173.555 106.559L169.746 95.1796L165.938 83.8L161.674 85.2269L165.483 96.6065ZM169.746 95.1796L173.555 106.559L177.818 105.132L174.01 93.7527L170.201 82.3731L165.938 83.8L169.746 95.1796ZM174.01 93.7527L177.818 105.132C180.822 104.127 183.803 103.058 186.761 101.926L182.472 90.7188L178.183 79.5116C175.543 80.522 172.882 81.4759 170.201 82.3731L174.01 93.7527ZM182.472 90.7188L186.761 101.926L190.96 100.319L186.671 89.1117L182.382 77.9045L178.183 79.5116L182.472 90.7188ZM186.671 89.1117L190.96 100.319L195.159 98.7119L190.87 87.5047L186.58 76.2975L182.382 77.9045L186.671 89.1117ZM190.87 87.5047L195.159 98.7119C197.972 97.6354 200.797 96.5482 203.635 95.4505L199.306 84.2586L194.976 73.0668C192.165 74.1544 189.366 75.2313 186.58 76.2975L190.87 87.5047ZM199.306 84.2586L203.635 95.4505L207.872 93.8114L203.543 82.6196L199.213 71.4278L194.976 73.0668L199.306 84.2586ZM203.543 82.6196L207.872 93.8114L212.109 92.1724L207.78 80.9806L203.45 69.7888L199.213 71.4278L203.543 82.6196ZM207.78 80.9806L212.109 92.1724C214.177 91.3726 216.291 90.7933 218.464 90.4297L216.484 78.5942L214.504 66.7587C210.72 67.3917 207.032 68.4033 203.45 69.7888L207.78 80.9806ZM216.484 78.5942L218.464 90.4297L222.932 89.6823L220.952 77.8467L218.972 66.0112L214.504 66.7587L216.484 78.5942ZM220.952 77.8467L222.932 89.6823L227.4 88.9348L225.42 77.0993L223.44 65.2638L218.972 66.0112L220.952 77.8467ZM225.42 77.0993L227.4 88.9348C230.149 88.4749 232.907 88.0955 235.675 87.7965L234.386 75.8659L233.098 63.9353C229.867 64.2843 226.647 64.7272 223.44 65.2638L225.42 77.0993ZM234.386 75.8659L235.675 87.7965L240.174 87.3105L238.885 75.3799L237.597 63.4493L233.098 63.9353L234.386 75.8659ZM238.885 75.3799L240.174 87.3105L244.673 86.8245L243.384 74.8939L242.096 62.9633L237.597 63.4493L238.885 75.3799ZM243.384 74.8939L244.673 86.8245C247.3 86.5408 249.931 86.3808 252.569 86.3446L252.404 74.3457L252.239 62.3468C248.85 62.3934 245.468 62.599 242.096 62.9633L243.384 74.8939ZM252.404 74.3457L252.569 86.3446L257.09 86.2824L256.925 74.2835L256.76 62.2847L252.239 62.3468L252.404 74.3457ZM256.925 74.2835L257.09 86.2824L261.611 86.2203L261.446 74.2214L261.281 62.2225L256.76 62.2847L256.925 74.2835ZM261.446 74.2214L261.611 86.2203C264.55 86.1798 267.489 86.167 270.428 86.1816L270.488 74.1817L270.548 62.1819C267.459 62.1665 264.37 62.1801 261.281 62.2225L261.446 74.2214ZM270.488 74.1817L270.428 86.1816L274.949 86.2041L275.009 74.2042L275.069 62.2043L270.548 62.1819L270.488 74.1817ZM275.009 74.2042L274.949 86.2041L279.47 86.2265L279.53 74.2267L279.589 62.2268L275.069 62.2043L275.009 74.2042ZM279.53 74.2267L279.47 86.2265C281.341 86.2358 283.183 86.5059 285.028 87.0514L288.43 75.5437L291.832 64.036C287.838 62.8554 283.747 62.2475 279.589 62.2268L279.53 74.2267ZM288.43 75.5437L285.028 87.0514L289.407 88.3459L292.809 76.8383L296.211 65.3306L291.832 64.036L288.43 75.5437ZM292.809 76.8383L289.407 88.3459L293.786 89.6405L297.188 78.1328L300.59 66.6251L296.211 65.3306L292.809 76.8383ZM297.188 78.1328L293.786 89.6405C297.375 90.7017 301.02 91.4397 304.713 91.8465L306.027 79.9186L307.341 67.9907C305.087 67.7425 302.839 67.29 300.59 66.6251L297.188 78.1328ZM306.027 79.9186L304.713 91.8465L309.174 92.3376L310.487 80.4098L311.801 68.4819L307.341 67.9907L306.027 79.9186ZM310.487 80.4098L309.174 92.3376L313.634 92.8288L314.947 80.901L316.261 68.9731L311.801 68.4819L310.487 80.4098ZM314.947 80.901L313.634 92.8288C316.501 93.1446 319.388 93.5013 322.295 93.899L323.922 82.0098L325.549 70.1206C322.437 69.6948 319.341 69.3122 316.261 68.9731L314.947 80.901ZM323.922 82.0098L322.295 93.899L326.809 94.5167L328.436 82.6275L330.063 70.7383L325.549 70.1206L323.922 82.0098ZM328.436 82.6275L326.809 94.5167L331.323 95.1344L332.95 83.2452L334.577 71.3559L330.063 70.7383L328.436 82.6275ZM332.95 83.2452L331.323 95.1344C332.838 95.3416 334.227 95.8075 335.566 96.5592L341.441 86.0961L347.317 75.6329C343.353 73.4069 339.081 71.9723 334.577 71.3559L332.95 83.2452ZM341.441 86.0961L335.566 96.5592L339.542 98.7925L345.418 88.3293L351.294 77.8662L347.317 75.6329L341.441 86.0961ZM345.418 88.3293L339.542 98.7925L343.519 101.026L349.395 90.5625L355.271 80.0994L351.294 77.8662L345.418 88.3293ZM349.395 90.5625L343.519 101.026C346.575 102.741 349.71 104.27 352.924 105.608L357.536 94.5299L362.149 83.4519C359.81 82.4779 357.518 81.3613 355.271 80.0994L349.395 90.5625ZM357.536 94.5299L352.924 105.608L357.088 107.342L361.701 96.264L366.314 85.1861L362.149 83.4519L357.536 94.5299ZM361.701 96.264L357.088 107.342L361.253 109.076L365.866 97.9982L370.479 86.9202L366.314 85.1861L361.701 96.264ZM365.866 97.9982L361.253 109.076C363.033 109.817 364.668 110.774 366.185 111.961L373.581 102.511L380.977 93.0616C377.759 90.5431 374.251 88.4911 370.479 86.9202L365.866 97.9982ZM373.581 102.511L366.185 111.961L369.735 114.74L377.131 105.29L384.528 95.8406L380.977 93.0616L373.581 102.511ZM377.131 105.29L369.735 114.74L373.286 117.519L380.682 108.069L388.078 98.6196L384.528 95.8406L377.131 105.29ZM380.682 108.069L373.286 117.519C375.874 119.545 378.547 121.49 381.302 123.354L388.026 113.415L394.751 103.476C392.447 101.918 390.223 100.299 388.078 98.6196L380.682 108.069ZM388.026 113.415L381.302 123.354L385.096 125.921L391.821 115.982L398.545 106.043L394.751 103.476L388.026 113.415ZM391.821 115.982L385.096 125.921L388.891 128.488L395.615 118.549L402.339 108.61L398.545 106.043L391.821 115.982ZM395.615 118.549L388.891 128.488C389.541 128.928 389.974 129.431 390.325 130.221L401.29 125.345L412.254 120.469C410.098 115.621 406.748 111.593 402.339 108.61L395.615 118.549ZM401.29 125.345L390.325 130.221L392.206 134.45L403.17 129.574L414.135 124.697L412.254 120.469L401.29 125.345ZM403.17 129.574L392.206 134.45L394.086 138.678L405.051 133.802L416.015 128.926L414.135 124.697L403.17 129.574ZM405.051 133.802L394.086 138.678C395.595 142.071 397.347 145.297 399.351 148.346L409.379 141.756L419.408 135.166C418.147 133.248 417.014 131.172 416.015 128.926L405.051 133.802ZM409.379 141.756L399.351 148.346L401.799 152.072L411.827 145.482L421.856 138.892L419.408 135.166L409.379 141.756ZM411.827 145.482L401.799 152.072L404.247 155.797L414.275 149.207L424.304 142.617L421.856 138.892L411.827 145.482ZM414.275 149.207L404.247 155.797C405.415 157.575 406.388 159.46 407.169 161.465L418.351 157.108L429.532 152.751C428.144 149.189 426.4 145.807 424.304 142.617L414.275 149.207ZM418.351 157.108L407.169 161.465L408.797 165.641L419.978 161.284L431.159 156.927L429.532 152.751L418.351 157.108ZM419.978 161.284L408.797 165.641L410.424 169.817L421.605 165.46L432.786 161.103L431.159 156.927L419.978 161.284ZM421.605 165.46L410.424 169.817C411.37 172.245 412.2 174.718 412.915 177.237L424.46 173.962L436.004 170.686C435.082 167.437 434.009 164.243 432.786 161.103L421.605 165.46ZM424.46 173.962L412.915 177.237L414.143 181.563L425.687 178.287L437.231 175.012L436.004 170.686L424.46 173.962ZM425.687 178.287L414.143 181.563L415.37 185.889L426.914 182.613L438.459 179.338L437.231 175.012L425.687 178.287ZM426.914 182.613L415.37 185.889C416.103 188.471 416.734 191.083 417.266 193.726L429.03 191.361L440.795 188.997C440.141 185.743 439.362 182.523 438.459 179.338L426.914 182.613ZM429.03 191.361L417.266 193.726L418.154 198.148L429.919 195.783L441.684 193.419L440.795 188.997L429.03 191.361ZM429.919 195.783L418.154 198.148L419.043 202.57L430.808 200.205L442.572 197.841L441.684 193.419L429.919 195.783ZM430.808 200.205L419.043 202.57C419.554 205.114 419.933 207.678 420.181 210.264L432.126 209.12L444.072 207.977C443.746 204.572 443.246 201.193 442.572 197.841L430.808 200.205ZM432.126 209.12L420.181 210.264L420.611 214.756L432.556 213.613L444.502 212.47L444.072 207.977L432.126 209.12ZM432.556 213.613L420.611 214.756L421.041 219.249L432.986 218.106L444.932 216.963L444.502 212.47L432.556 213.613ZM432.986 218.106L421.041 219.249C421.236 221.29 421.189 223.337 420.893 225.41L432.772 227.107L444.651 228.804C445.214 224.866 445.31 220.913 444.932 216.963L432.986 218.106ZM432.772 227.107L420.893 225.41L420.249 229.918L432.128 231.615L444.007 233.312L444.651 228.804L432.772 227.107ZM432.128 231.615L420.249 229.918L419.605 234.426L431.484 236.123L443.363 237.82L444.007 233.312L432.128 231.615ZM431.484 236.123L419.605 234.426C418.969 238.876 419.147 243.332 420.108 247.725L431.831 245.162L443.554 242.598C443.193 240.951 443.14 239.381 443.363 237.82L431.484 236.123ZM431.831 245.162L420.108 247.725L421.098 252.256L432.821 249.692L444.544 247.128L443.554 242.598L431.831 245.162ZM432.821 249.692L421.098 252.256L422.089 256.786L433.812 254.223L445.535 251.659L444.544 247.128L432.821 249.692ZM433.812 254.223L422.089 256.786C422.359 258.019 422.334 259.128 422.049 260.262L433.686 263.191L445.323 266.12C446.527 261.337 446.587 256.467 445.535 251.659L433.812 254.223ZM433.686 263.191L422.049 260.262L420.932 264.7L432.569 267.629L444.206 270.559L445.323 266.12L433.686 263.191ZM432.569 267.629L420.932 264.7L419.815 269.138L431.452 272.068L443.089 274.997L444.206 270.559L432.569 267.629ZM431.452 272.068L419.815 269.138C418.989 272.42 418.305 275.71 417.767 279.008L429.61 280.942L441.453 282.876C441.88 280.259 442.425 277.633 443.089 274.997L431.452 272.068ZM429.61 280.942L417.767 279.008L417.042 283.444L428.885 285.379L440.728 287.313L441.453 282.876L429.61 280.942ZM428.885 285.379L417.042 283.444L416.318 287.881L428.161 289.815L440.004 291.749L440.728 287.313L428.885 285.379ZM428.161 289.815L416.318 287.881C415.681 291.781 415.511 295.727 415.793 299.698L427.762 298.849L439.732 297.999C439.579 295.84 439.675 293.764 440.004 291.749L428.161 289.815ZM427.762 298.849L415.793 299.698L416.119 304.295L428.089 303.446L440.059 302.597L439.732 297.999L427.762 298.849ZM428.089 303.446L416.119 304.295L416.445 308.893L428.415 308.043L440.385 307.194L440.059 302.597L428.089 303.446ZM428.415 308.043L416.445 308.893C416.592 310.966 416.48 312.968 416.12 314.925L427.922 317.095L439.724 319.265C440.456 315.283 440.673 311.25 440.385 307.194L428.415 308.043ZM427.922 317.095L416.12 314.925L415.301 319.379L427.103 321.549L438.905 323.719L439.724 319.265L427.922 317.095ZM427.103 321.549L415.301 319.379L414.482 323.833L426.284 326.003L438.086 328.173L438.905 323.719L427.103 321.549ZM426.284 326.003L414.482 323.833C414.174 325.505 413.601 327.127 412.714 328.738L423.227 334.524L433.74 340.31C435.837 336.499 437.301 332.441 438.086 328.173L426.284 326.003ZM423.227 334.524L412.714 328.738L410.476 332.805L420.989 338.591L431.502 344.376L433.74 340.31L423.227 334.524ZM420.989 338.591L410.476 332.805L408.238 336.871L418.751 342.657L429.264 348.443L431.502 344.376L420.989 338.591ZM418.751 342.657L408.238 336.871C406.207 340.562 404.723 344.467 403.828 348.562L415.551 351.125L427.274 353.688C427.662 351.914 428.312 350.174 429.264 348.443L418.751 342.657ZM415.551 351.125L403.828 348.562L402.866 352.963L414.589 355.526L426.312 358.089L427.274 353.688L415.551 351.125ZM414.589 355.526L402.866 352.963L401.904 357.364L413.627 359.927L425.35 362.49L426.312 358.089L414.589 355.526ZM413.627 359.927L401.904 357.364C401.61 358.707 401.09 359.867 400.315 360.943L410.052 367.956L419.789 374.97C422.498 371.208 424.361 367.015 425.35 362.49L413.627 359.927ZM410.052 367.956L400.315 360.943L397.702 364.571L407.439 371.584L417.176 378.597L419.789 374.97L410.052 367.956ZM407.439 371.584L397.702 364.571L395.089 368.198L404.826 375.212L414.563 382.225L417.176 378.597L407.439 371.584ZM404.826 375.212L395.089 368.198C393.187 370.839 391.365 373.559 389.623 376.356L399.81 382.699L409.996 389.042C411.458 386.694 412.981 384.422 414.563 382.225L404.826 375.212ZM399.81 382.699L389.623 376.356L387.22 380.216L397.406 386.559L407.593 392.902L409.996 389.042L399.81 382.699ZM397.406 386.559L387.22 380.216L384.817 384.075L395.003 390.418L405.19 396.761L407.593 392.902L397.406 386.559ZM395.003 390.418L384.817 384.075C384.345 384.832 383.792 385.349 382.986 385.772L388.565 396.396L394.143 407.021C398.718 404.619 402.457 401.15 405.19 396.761L395.003 390.418ZM388.565 396.396L382.986 385.772L378.951 387.891L384.529 398.515L390.108 409.14L394.143 407.021L388.565 396.396ZM384.529 398.515L378.951 387.891L374.916 390.009L380.494 400.634L386.072 411.258L390.108 409.14L384.529 398.515ZM380.494 400.634L374.916 390.009C372.125 391.474 369.385 392.964 366.696 394.477L372.581 404.934L378.467 415.392C380.947 413.996 383.483 412.618 386.072 411.258L380.494 400.634ZM372.581 404.934L366.696 394.477L362.819 396.659L368.704 407.116L374.589 417.574L378.467 415.392L372.581 404.934ZM368.704 407.116L362.819 396.659L358.942 398.84L364.827 409.298L370.712 419.756L374.589 417.574L368.704 407.116ZM364.827 409.298L358.942 398.84C355.863 400.573 352.89 402.533 350.023 404.71L357.281 414.267L364.538 423.823C366.563 422.285 368.622 420.933 370.712 419.756L364.827 409.298ZM357.281 414.267L350.023 404.71L346.354 407.496L353.611 417.053L360.868 426.61L364.538 423.823L357.281 414.267ZM353.611 417.053L346.354 407.496L342.685 410.283L349.942 419.84L357.199 429.396L360.868 426.61L353.611 417.053ZM349.942 419.84L342.685 410.283C341.131 411.463 339.489 412.374 337.735 413.046L342.028 424.252L346.321 435.458C350.226 433.962 353.86 431.932 357.199 429.396L349.942 419.84ZM342.028 424.252L337.735 413.046L333.49 414.672L337.783 425.878L342.076 437.084L346.321 435.458L342.028 424.252ZM337.783 425.878L333.49 414.672L329.246 416.298L333.539 427.504L337.832 438.71L342.076 437.084L337.783 425.878ZM333.539 427.504L329.246 416.298C327.446 416.988 325.581 417.424 323.62 417.607L324.734 429.555L325.847 441.503C329.968 441.119 333.973 440.188 337.832 438.71L333.539 427.504ZM324.734 429.555L323.62 417.607L319.059 418.032L320.173 429.98L321.286 441.928L325.847 441.503L324.734 429.555ZM320.173 429.98L319.059 418.032L314.498 418.457L315.612 430.405L316.725 442.354L321.286 441.928L320.173 429.98ZM315.612 430.405L314.498 418.457C310.764 418.805 307.094 419.474 303.497 420.466L306.687 432.034L309.878 443.602C312.099 442.989 314.378 442.572 316.725 442.354L315.612 430.405ZM306.687 432.034L303.497 420.466L299.133 421.669L302.324 433.237L305.514 444.806L309.878 443.602L306.687 432.034ZM302.324 433.237L299.133 421.669L294.769 422.873L297.96 434.441L301.151 446.009L305.514 444.806L302.324 433.237ZM297.96 434.441L294.769 422.873C292.9 423.389 291.013 423.643 289.08 423.643L289.075 435.643L289.07 447.643C293.165 447.644 297.202 447.098 301.151 446.009L297.96 434.441ZM289.075 435.643L289.08 423.643L284.559 423.641L284.553 435.641L284.548 447.641L289.07 447.643L289.075 435.643ZM284.553 435.641L284.559 423.641L280.037 423.639L280.032 435.639L280.027 447.639L284.548 447.641L284.553 435.641ZM280.032 435.639L280.037 423.639C276.863 423.637 273.694 423.699 270.53 423.825L271.006 435.816L271.482 447.806C274.324 447.693 277.172 447.637 280.027 447.639L280.032 435.639ZM271.006 435.816L270.53 423.825L266.026 424.004L266.502 435.995L266.978 447.985L271.482 447.806L271.006 435.816ZM266.502 435.995L266.026 424.004L261.522 424.183L261.998 436.173L262.474 448.164L266.978 447.985L266.502 435.995ZM261.998 436.173L261.522 424.183C259.226 424.274 256.943 424.163 254.666 423.849L253.028 435.737L251.389 447.624C255.067 448.131 258.765 448.311 262.474 448.164L261.998 436.173ZM253.028 435.737L254.666 423.849L250.2 423.233L248.562 435.121L246.923 447.009L251.389 447.624L253.028 435.737ZM248.562 435.121L250.2 423.233L245.734 422.618L244.096 434.505L242.457 446.393L246.923 447.009L248.562 435.121ZM244.096 434.505L245.734 422.618C242.552 422.179 239.357 421.823 236.15 421.548L235.127 433.505L234.104 445.461C236.901 445.7 239.685 446.011 242.457 446.393L244.096 434.505ZM235.127 433.505L236.15 421.548L231.647 421.163L230.624 433.119L229.601 445.076L234.104 445.461L235.127 433.505ZM230.624 433.119L231.647 421.163L227.144 420.778L226.121 432.734L225.098 444.69L229.601 445.076L230.624 433.119ZM226.121 432.734L227.144 420.778C225.341 420.624 223.616 420.21 221.929 419.527L217.422 430.648L212.915 441.77C216.823 443.354 220.897 444.331 225.098 444.69L226.121 432.734ZM217.422 430.648L221.929 419.527L217.733 417.826L213.226 428.948L208.719 440.069L212.915 441.77L217.422 430.648ZM213.226 428.948L217.733 417.826L213.536 416.126L209.029 427.247L204.522 438.368L208.719 440.069L213.226 428.948ZM209.029 427.247L213.536 416.126C210.893 415.054 208.303 413.94 205.764 412.784L200.789 423.704L195.814 434.624C198.668 435.924 201.57 437.172 204.522 438.368L209.029 427.247ZM200.789 423.704L205.764 412.784L201.72 410.942L196.746 421.862L191.771 432.782L195.814 434.624L200.789 423.704ZM196.746 421.862L201.72 410.942L197.677 409.1L192.702 420.02L187.727 430.94L191.771 432.782L196.746 421.862ZM192.702 420.02L197.677 409.1C195.387 408.056 193.171 406.893 191.028 405.61L184.864 415.906L178.699 426.202C181.615 427.947 184.625 429.527 187.727 430.94L192.702 420.02ZM184.864 415.906L191.028 405.61L187.233 403.338L181.069 413.634L174.905 423.93L178.699 426.202L184.864 415.906ZM181.069 413.634L187.233 403.338L183.438 401.066L177.274 411.362L171.11 421.658L174.905 423.93L181.069 413.634ZM177.274 411.362L183.438 401.066C180.993 399.602 178.541 398.094 176.083 396.541L169.674 406.686L163.265 416.831C165.882 418.484 168.497 420.093 171.11 421.658L177.274 411.362ZM169.674 406.686L176.083 396.541L172.277 394.137L165.868 404.282L159.459 414.427L163.265 416.831L169.674 406.686ZM165.868 404.282L172.277 394.137L168.471 391.732L162.062 401.877L155.653 412.022L159.459 414.427L165.868 404.282ZM162.062 401.877L168.471 391.732C166.394 390.42 164.402 388.965 162.494 387.364L154.78 396.556L147.066 405.748C149.793 408.037 152.656 410.129 155.653 412.022L162.062 401.877ZM154.78 396.556L162.494 387.364L159.017 384.446L151.304 393.639L143.59 402.831L147.066 405.748L154.78 396.556ZM151.304 393.639L159.017 384.446L155.541 381.529L147.827 390.721L140.114 399.914L143.59 402.831L151.304 393.639ZM147.827 390.721L155.541 381.529C153.956 380.199 152.562 378.711 151.342 377.05L141.67 384.152L131.997 391.255C134.353 394.463 137.063 397.354 140.114 399.914L147.827 390.721ZM141.67 384.152L151.342 377.05L148.661 373.398L138.988 380.501L129.316 387.603L131.997 391.255L141.67 384.152ZM138.988 380.501L148.661 373.398L145.979 369.746L136.307 376.849L126.634 383.951L129.316 387.603L138.988 380.501ZM136.307 376.849L145.979 369.746C144.019 367.077 141.966 364.486 139.822 361.974L130.695 369.765L121.568 377.556C123.331 379.62 125.019 381.752 126.634 383.951L136.307 376.849ZM130.695 369.765L139.822 361.974L136.892 358.542L127.766 366.333L118.639 374.124L121.568 377.556L130.695 369.765ZM127.766 366.333L136.892 358.542L133.963 355.109L124.836 362.9L115.709 370.691L118.639 374.124L127.766 366.333ZM124.836 362.9L133.963 355.109C132.738 353.674 131.719 352.083 130.902 350.303L119.997 355.31L109.091 360.318C110.819 364.081 113.027 367.55 115.709 370.691L124.836 362.9ZM119.997 355.31L130.902 350.303L128.993 346.145L118.087 351.153L107.182 356.16L109.091 360.318L119.997 355.31ZM118.087 351.153L128.993 346.145L127.083 341.987L116.178 346.995L105.273 352.003L107.182 356.16L118.087 351.153ZM116.178 346.995L127.083 341.987C125.445 338.419 123.439 335.075 121.066 331.974L111.537 339.267L102.007 346.561C103.277 348.22 104.366 350.027 105.273 352.003L116.178 346.995ZM111.537 339.267L121.066 331.974L118.333 328.404L108.804 335.697L99.275 342.991L102.007 346.561L111.537 339.267ZM108.804 335.697L118.333 328.404L115.601 324.834L106.072 332.127L96.5426 339.421L99.275 342.991L108.804 335.697ZM106.072 332.127L115.601 324.834C113.834 322.525 112.085 320.186 110.353 317.817L100.664 324.897L90.9756 331.977C92.8109 334.488 94.6666 336.97 96.5426 339.421L106.072 332.127ZM100.664 324.897L110.353 317.817L107.678 314.156L97.9893 321.236L88.3005 328.316L90.9756 331.977L100.664 324.897ZM97.9893 321.236L107.678 314.156L105.003 310.495L95.3142 317.575L85.6254 324.655L88.3005 328.316L97.9893 321.236ZM95.3142 317.575L105.003 310.495C103.91 308.999 103.066 307.397 102.452 305.655L91.1342 309.643L79.8162 313.631C81.2092 317.584 83.1518 321.27 85.6254 324.655L95.3142 317.575ZM91.1342 309.643L102.452 305.655L100.947 301.384L89.6293 305.372L78.3113 309.36L79.8162 313.631L91.1342 309.643ZM89.6293 305.372L100.947 301.384L99.4425 297.113L88.1245 301.101L76.8064 305.089L78.3113 309.36L89.6293 305.372ZM88.1245 301.101L99.4425 297.113C98.4248 294.225 97.3956 291.354 96.3549 288.5L85.0813 292.612L73.8077 296.724C74.8181 299.494 75.8177 302.282 76.8064 305.089L88.1245 301.101ZM85.0813 292.612L96.3549 288.5L94.8166 284.283L83.543 288.394L72.2694 292.506L73.8077 296.724L85.0813 292.612ZM83.543 288.394L94.8166 284.283L93.2783 280.065L82.0047 284.177L70.7312 288.288L72.2694 292.506L83.543 288.394ZM82.0047 284.177L93.2783 280.065C92.5459 278.057 92.0306 275.985 91.7327 273.833L79.8461 275.479L67.9595 277.125C68.4887 280.947 69.4124 284.673 70.7312 288.288L82.0047 284.177ZM79.8461 275.479L91.7327 273.833L91.1124 269.353L79.2258 270.999L67.3392 272.645L67.9595 277.125L79.8461 275.479ZM79.2258 270.999L91.1124 269.353L90.492 264.874L78.6054 266.52L66.7189 268.165L67.3392 272.645L79.2258 270.999ZM78.6054 266.52L90.492 264.874C90.2979 263.472 90.2052 262.604 90.1721 262.148C90.1542 261.902 90.17 261.988 90.1635 262.274C90.1603 262.415 90.1482 262.79 90.0785 263.301C90.0424 263.564 89.9794 263.95 89.8654 264.415C89.7567 264.859 89.5582 265.555 89.1943 266.369L78.2388 261.472L67.2834 256.575C66.1414 259.13 66.1733 261.568 66.1697 261.727C66.1515 262.528 66.192 263.292 66.2352 263.887C66.3243 265.114 66.4994 266.581 66.7189 268.165L78.6054 266.52ZM78.2388 261.472L89.1943 266.369L89.448 265.801L78.4926 260.904L67.5371 256.008L67.2834 256.575L78.2388 261.472ZM78.4926 260.904L89.1269 266.464L89.672 265.421L79.0377 259.862L68.4033 254.302L67.8582 255.345L78.4926 260.904ZM79.0377 259.862L90.1542 255.343L90.1165 255.25L79 259.769L67.8835 264.288L67.9211 264.381L79.0377 259.862Z" fill="black"/>
<path d="M177.091 281.393C172.337 278.581 166.205 280.156 163.393 284.909C160.581 289.663 162.156 295.795 166.909 298.607L177.091 281.393ZM172.086 290.051L180.822 285.184L179.505 282.821L177.177 281.444L172.086 290.051ZM175.75 296.627L167.014 301.494L175.75 296.627ZM207.461 321.414L210.529 311.896L207.461 321.414ZM228.848 328.317L225.773 337.833L228.848 328.317ZM243.793 329.204L243.547 319.207L243.793 329.204ZM251.317 329.168L251.163 339.167L251.317 329.168ZM255.061 329.226L254.907 339.225L255.061 329.226ZM258.805 329.284L258.959 319.285L258.805 329.284ZM266.293 329.319L266.354 339.319L266.293 329.319ZM270.038 329.296L269.978 319.297L270.038 329.296ZM273.782 329.274L273.842 339.274L273.782 329.274ZM288.647 327.856L289.892 337.778L288.647 327.856ZM295.91 326.625L293.805 316.849L295.91 326.625ZM309.636 322.154L315.431 330.304L309.636 322.154ZM315.748 317.808L309.952 309.658L315.748 317.808ZM319.103 315.385L312.696 307.707L319.103 315.385ZM319.402 315.136L325.809 322.813L326.077 322.59L326.328 322.348L319.402 315.136ZM319.902 314.655L318.001 304.837L315.104 305.398L312.975 307.442L319.902 314.655ZM321.9 324.454C327.323 323.404 330.867 318.158 329.818 312.736C328.768 307.314 323.522 303.769 318.1 304.818L321.9 324.454ZM172 290L166.909 298.607L166.995 298.658L172.086 290.051L177.177 281.444L177.091 281.393L172 290ZM172.086 290.051L163.35 294.918L167.014 301.494L175.75 296.627L184.485 291.76L180.822 285.184L172.086 290.051ZM175.75 296.627L167.014 301.494C169.57 306.081 172.347 310.288 175.42 313.127L182.205 305.781L188.991 298.436C188.342 297.836 186.815 295.94 184.485 291.76L175.75 296.627ZM182.205 305.781L175.42 313.127L178.211 315.705L184.997 308.36L191.782 301.014L188.991 298.436L182.205 305.781ZM184.997 308.36L178.211 315.705L181.003 318.284L187.788 310.939L194.574 303.593L191.782 301.014L184.997 308.36ZM187.788 310.939L181.003 318.284C183.533 320.622 186.338 322.579 189.404 324.13L193.919 315.207L198.435 306.285C197.047 305.583 195.765 304.694 194.574 303.593L187.788 310.939ZM193.919 315.207L189.404 324.13L192.743 325.82L197.259 316.898L201.774 307.975L198.435 306.285L193.919 315.207ZM197.259 316.898L192.743 325.82L196.083 327.51L200.598 318.588L205.114 309.665L201.774 307.975L197.259 316.898ZM200.598 318.588L196.083 327.51C198.77 328.87 201.541 330.012 204.393 330.931L207.461 321.414L210.529 311.896C208.683 311.301 206.879 310.559 205.114 309.665L200.598 318.588ZM207.461 321.414L204.393 330.931L207.916 332.067L210.984 322.549L214.052 313.032L210.529 311.896L207.461 321.414ZM210.984 322.549L207.916 332.067L211.439 333.203L214.508 323.685L217.576 314.167L214.052 313.032L210.984 322.549ZM214.508 323.685L211.439 333.203C213.786 333.959 216.16 334.725 218.561 335.502L221.637 325.986L224.712 316.471C222.306 315.693 219.927 314.925 217.576 314.167L214.508 323.685ZM221.637 325.986L218.561 335.502L222.167 336.667L225.243 327.152L228.318 317.637L224.712 316.471L221.637 325.986ZM225.243 327.152L222.167 336.667L225.773 337.833L228.848 328.317L231.924 318.802L228.318 317.637L225.243 327.152ZM228.848 328.317L225.773 337.833C229.246 338.955 232.831 339.477 236.48 339.387L236.234 329.39L235.988 319.393C234.597 319.427 233.258 319.233 231.924 318.802L228.848 328.317ZM236.234 329.39L236.48 339.387L240.26 339.294L240.014 329.297L239.767 319.3L235.988 319.393L236.234 329.39ZM240.014 329.297L240.26 339.294L244.039 339.201L243.793 329.204L243.547 319.207L239.767 319.3L240.014 329.297ZM243.793 329.204L244.039 339.201C246.427 339.142 248.801 339.131 251.163 339.167L251.317 329.168L251.471 319.169C248.84 319.129 246.199 319.141 243.547 319.207L243.793 329.204ZM251.317 329.168L251.163 339.167L254.907 339.225L255.061 329.226L255.215 319.227L251.471 319.169L251.317 329.168ZM255.061 329.226L254.907 339.225L258.651 339.283L258.805 329.284L258.959 319.285L255.215 319.227L255.061 329.226ZM258.805 329.284L258.651 339.283C261.218 339.322 263.786 339.334 266.354 339.319L266.293 329.319L266.233 319.319C263.808 319.334 261.384 319.322 258.959 319.285L258.805 329.284ZM266.293 329.319L266.354 339.319L270.098 339.296L270.038 329.296L269.978 319.297L266.233 319.319L266.293 329.319ZM270.038 329.296L270.098 339.296L273.842 339.274L273.782 329.274L273.722 319.274L269.978 319.297L270.038 329.296ZM273.782 329.274L273.842 339.274C276.734 339.256 279.613 339.068 282.478 338.708L281.233 328.786L279.988 318.864C277.911 319.125 275.823 319.261 273.722 319.274L273.782 329.274ZM281.233 328.786L282.478 338.708L286.185 338.243L284.94 328.321L283.695 318.399L279.988 318.864L281.233 328.786ZM284.94 328.321L286.185 338.243L289.892 337.778L288.647 327.856L287.402 317.934L283.695 318.399L284.94 328.321ZM288.647 327.856L289.892 337.778C292.644 337.433 295.352 336.974 298.015 336.401L295.91 326.625L293.805 316.849C291.726 317.297 289.592 317.659 287.402 317.934L288.647 327.856ZM295.91 326.625L298.015 336.401L301.572 335.635L299.467 325.859L297.361 316.083L293.805 316.849L295.91 326.625ZM299.467 325.859L301.572 335.635L305.129 334.869L303.023 325.093L300.918 315.317L297.361 316.083L299.467 325.859ZM303.023 325.093L305.129 334.869C308.869 334.064 312.322 332.515 315.431 330.304L309.636 322.154L303.841 314.005C302.875 314.691 301.921 315.101 300.918 315.317L303.023 325.093ZM309.636 322.154L315.431 330.304L318.487 328.13L312.692 319.981L306.896 311.831L303.841 314.005L309.636 322.154ZM312.692 319.981L318.487 328.13L321.543 325.957L315.748 317.808L309.952 309.658L306.896 311.831L312.692 319.981ZM315.748 317.808L321.543 325.957C323.311 324.7 324.922 323.554 325.51 323.063L319.103 315.385L312.696 307.707C312.79 307.629 312.86 307.574 312.882 307.556C312.898 307.544 312.909 307.535 312.916 307.53C312.923 307.524 312.927 307.521 312.927 307.521C312.928 307.52 312.921 307.526 312.904 307.538C312.888 307.55 312.866 307.567 312.837 307.588C312.715 307.678 312.527 307.816 312.26 308.008C311.73 308.391 310.964 308.939 309.952 309.658L315.748 317.808ZM319.103 315.385L325.51 323.063L325.809 322.813L319.402 315.136L312.995 307.458L312.696 307.707L319.103 315.385ZM319.402 315.136L326.328 322.348L326.828 321.868L319.902 314.655L312.975 307.442L312.475 307.923L319.402 315.136ZM319.902 314.655L321.802 324.473L321.9 324.454L320 314.636L318.1 304.818L318.001 304.837L319.902 314.655Z" fill="black"/>
<path d="M225.522 180.054C227.209 174.795 224.313 169.165 219.054 167.478C213.795 165.791 208.165 168.687 206.478 173.946L225.522 180.054ZM215.969 177.095L225.156 181.046L225.345 180.606L225.492 180.149L215.969 177.095ZM213.012 183.971L203.826 180.019L213.012 183.971ZM207.289 201.773L197.595 199.319L207.289 201.773ZM205.532 209.086L195.781 206.868L205.532 209.086ZM203.862 216.427L194.111 214.209L203.862 216.427ZM202.237 222.642L192.686 219.677L202.237 222.642ZM200.656 227.733L191.106 224.767L200.656 227.733ZM199.649 230.208L202.704 220.686L199.649 230.208ZM199.433 230.139L194.405 238.783L195.344 239.329L196.379 239.661L199.433 230.139ZM199.031 229.905L204.059 221.261L193.307 215.007L189.508 226.851L199.031 229.905ZM189.478 226.946C187.791 232.205 190.687 237.835 195.946 239.522C201.205 241.209 206.835 238.313 208.522 233.054L189.478 226.946ZM216 177L206.478 173.946L206.447 174.041L215.969 177.095L225.492 180.149L225.522 180.054L216 177ZM215.969 177.095L206.783 173.144L203.826 180.019L213.012 183.971L222.199 187.922L225.156 181.046L215.969 177.095ZM213.012 183.971L203.826 180.019C201.808 184.711 200.255 188.81 199.439 192.034L209.133 194.488L218.827 196.943C219.241 195.31 220.274 192.397 222.199 187.922L213.012 183.971ZM209.133 194.488L199.439 192.034L198.517 195.676L208.211 198.131L217.905 200.585L218.827 196.943L209.133 194.488ZM208.211 198.131L198.517 195.676L197.595 199.319L207.289 201.773L216.983 204.227L217.905 200.585L208.211 198.131ZM207.289 201.773L197.595 199.319C196.96 201.826 196.355 204.342 195.781 206.868L205.532 209.086L215.283 211.304C215.821 208.936 216.388 206.577 216.983 204.227L207.289 201.773ZM205.532 209.086L195.781 206.868L194.946 210.538L204.697 212.756L214.448 214.974L215.283 211.304L205.532 209.086ZM204.697 212.756L194.946 210.538L194.111 214.209L203.862 216.427L213.613 218.645L214.448 214.974L204.697 212.756ZM203.862 216.427L194.111 214.209C193.59 216.497 193.113 218.304 192.686 219.677L202.237 222.642L211.787 225.607C212.414 223.587 213.02 221.25 213.613 218.645L203.862 216.427ZM202.237 222.642L192.686 219.677L191.896 222.222L201.446 225.187L210.997 228.153L211.787 225.607L202.237 222.642ZM201.446 225.187L191.896 222.222L191.106 224.767L200.656 227.733L210.206 230.698L210.997 228.153L201.446 225.187ZM200.656 227.733L191.106 224.767C190.994 225.129 190.904 225.404 190.835 225.606C190.761 225.821 190.733 225.889 190.746 225.857C190.753 225.839 190.79 225.749 190.855 225.611C190.911 225.494 191.052 225.204 191.28 224.834C191.429 224.592 192.002 223.664 193.051 222.726C193.774 222.081 197.477 219.01 202.704 220.686L199.649 230.208L196.595 239.73C201.858 241.418 205.603 238.332 206.374 237.643C207.471 236.663 208.098 235.665 208.307 235.325C208.815 234.501 209.137 233.726 209.273 233.391C209.607 232.569 209.924 231.607 210.206 230.698L200.656 227.733ZM199.649 230.208L202.704 220.686L202.487 220.617L199.433 230.139L196.379 239.661L196.595 239.73L199.649 230.208ZM199.433 230.139L204.461 221.495L204.059 221.261L199.031 229.905L194.002 238.549L194.405 238.783L199.433 230.139ZM199.031 229.905L189.508 226.851L189.478 226.946L199 230L208.522 233.054L208.553 232.959L199.031 229.905Z" fill="black"/>
<path d="M275.256 237.751C274.014 243.133 277.37 248.502 282.751 249.744C288.133 250.986 293.502 247.63 294.744 242.249L275.256 237.751ZM285.022 239.903L275.594 236.57L275.406 237.103L275.279 237.654L285.022 239.903ZM293.467 199.641L283.557 198.3L293.467 199.641ZM295.045 191.843L285.376 189.291L295.045 191.843ZM295.581 189.812L285.913 187.259L295.581 189.812ZM296.338 187.835L293.921 197.539L296.338 187.835ZM296.559 187.89L300.996 178.929L300.026 178.448L298.976 178.187L296.559 187.89ZM296.978 188.097L292.54 197.059L303.877 202.673L306.721 190.346L296.978 188.097ZM306.744 190.249C307.986 184.867 304.63 179.498 299.249 178.256C293.867 177.014 288.498 180.37 287.256 185.751L306.744 190.249ZM285 240L294.744 242.249L294.766 242.151L285.022 239.903L275.279 237.654L275.256 237.751L285 240ZM285.022 239.903L294.451 243.235L296.952 236.16L287.523 232.828L278.095 229.495L275.594 236.57L285.022 239.903ZM287.523 232.828L296.952 236.16C298.67 231.299 299.961 226.882 300.423 223.308L290.506 222.026L280.588 220.744C280.408 222.139 279.711 224.923 278.095 229.495L287.523 232.828ZM290.506 222.026L300.423 223.308L300.905 219.581L290.987 218.299L281.07 217.018L280.588 220.744L290.506 222.026ZM290.987 218.299L300.905 219.581L301.386 215.855L291.469 214.573L281.551 213.291L281.07 217.018L290.987 218.299ZM291.469 214.573L301.386 215.855C301.705 213.39 302.031 210.923 302.366 208.452L292.456 207.111L282.546 205.77C282.207 208.28 281.875 210.787 281.551 213.291L291.469 214.573ZM292.456 207.111L302.366 208.452L302.871 204.717L292.962 203.376L283.052 202.035L282.546 205.77L292.456 207.111ZM292.962 203.376L302.871 204.717L303.377 200.982L293.467 199.641L283.557 198.3L283.052 202.035L292.962 203.376ZM293.467 199.641L303.377 200.982C303.694 198.635 303.977 197.188 304.178 196.427L294.509 193.875L284.84 191.322C284.326 193.27 283.914 195.667 283.557 198.3L293.467 199.641ZM294.509 193.875L304.178 196.427L304.714 194.395L295.045 191.843L285.376 189.291L284.84 191.322L294.509 193.875ZM295.045 191.843L304.714 194.395L305.25 192.364L295.581 189.812L285.913 187.259L285.376 189.291L295.045 191.843ZM295.581 189.812L305.25 192.364C305.408 191.766 305.45 191.687 305.377 191.878C305.374 191.887 305.139 192.536 304.624 193.34C304.397 193.694 303.717 194.719 302.485 195.695C301.239 196.681 298.105 198.581 293.921 197.539L296.338 187.835L298.755 178.132C294.535 177.08 291.36 178.993 290.072 180.013C288.795 181.023 288.07 182.105 287.792 182.537C287.177 183.495 286.83 184.387 286.7 184.726C286.375 185.575 286.112 186.503 285.913 187.259L295.581 189.812ZM296.338 187.835L293.921 197.539L294.142 197.594L296.559 187.89L298.976 178.187L298.755 178.132L296.338 187.835ZM296.559 187.89L292.121 196.852L292.54 197.059L296.978 188.097L301.415 179.136L300.996 178.929L296.559 187.89ZM296.978 188.097L306.721 190.346L306.744 190.249L297 188L287.256 185.751L287.234 185.849L296.978 188.097Z" fill="black"/>
<path d="M78.5637 262.439C78.2539 263.785 79.0935 265.126 80.439 265.436C81.7846 265.746 83.1264 264.906 83.4363 263.561L78.5637 262.439ZM81.0224 262.903L78.8966 261.587L78.679 261.939L78.5862 262.342L81.0224 262.903ZM81.9565 261.393L84.0824 262.709L81.9565 261.393ZM83.0281 258.95L85.5014 259.315L83.0281 258.95ZM83.1657 258.017L80.6924 257.653L83.1657 258.017ZM84.0932 250.557L86.5607 250.958L84.0932 250.557ZM84.244 249.63L81.7764 249.229L84.244 249.63ZM84.6786 247.801L87.0636 248.55L84.6786 247.801ZM85.2462 245.995L82.8611 245.245L85.2462 245.995ZM85.5735 244.148L83.0762 244.033L85.5735 244.148ZM85.8349 240.392L83.3593 240.043L85.8349 240.392ZM85.9655 239.464L88.4411 239.813L85.9655 239.464ZM86.0962 238.537L83.6206 238.188L86.0962 238.537ZM86.3771 236.683L88.8448 237.084L86.3771 236.683ZM86.5275 235.757L84.0598 235.357L86.5275 235.757ZM86.913 232.97L84.4233 232.744L86.913 232.97ZM86.9979 232.036L84.5081 231.81L86.9979 232.036ZM87.0827 231.101L89.5725 231.327L87.0827 231.101ZM87.3902 229.251L84.9611 228.66L87.3902 229.251ZM87.8355 227.422L90.2646 228.013L87.8355 227.422ZM88.2092 225.581L85.7419 225.179L88.2092 225.581ZM88.5114 223.73L86.0441 223.327L88.5114 223.73ZM88.8508 221.885L86.4017 221.383L88.8508 221.885ZM89.2275 220.045L91.6767 220.547L89.2275 220.045ZM89.509 218.192L87.0213 217.944L89.509 218.192ZM89.6021 217.258L87.1145 217.01L89.6021 217.258ZM89.6952 216.324L92.1829 216.572L89.6952 216.324ZM89.8199 214.447L87.3213 214.363L89.8199 214.447ZM89.8829 212.56L92.3815 212.644L89.8829 212.56ZM90.0723 210.693L87.608 210.272L90.0723 210.693ZM90.2302 209.768L87.7659 209.347L90.2302 209.768ZM90.3881 208.844L92.8524 209.265L90.3881 208.844ZM90.6595 207.69L92.9012 208.796L90.6595 207.69ZM90.773 207.46L88.618 206.192L88.5718 206.271L88.5313 206.353L90.773 207.46ZM90.9852 207.099L93.1402 208.366L93.3861 207.948L93.4578 207.468L90.9852 207.099ZM93.4725 207.37C93.6766 206.004 92.7351 204.732 91.3695 204.527C90.004 204.323 88.7316 205.265 88.5275 206.63L93.4725 207.37ZM81 263L83.4363 263.561L83.4587 263.463L81.0224 262.903L78.5862 262.342L78.5637 262.439L81 263ZM81.0224 262.903L83.1483 264.218L84.0824 262.709L81.9565 261.393L79.8306 260.078L78.8966 261.587L81.0224 262.903ZM81.9565 261.393L84.0824 262.709C84.7542 261.623 85.3334 260.455 85.5014 259.315L83.0281 258.95L80.5548 258.586C80.5394 258.691 80.4042 259.151 79.8306 260.078L81.9565 261.393ZM83.0281 258.95L85.5014 259.315L85.639 258.381L83.1657 258.017L80.6924 257.653L80.5548 258.586L83.0281 258.95ZM83.1657 258.017L85.639 258.381L85.7765 257.448L83.3032 257.084L80.8299 256.719L80.6924 257.653L83.1657 258.017ZM83.3032 257.084L85.7765 257.448C85.8746 256.783 85.955 256.116 86.0176 255.448L83.5285 255.215L81.0394 254.982C80.985 255.561 80.9152 256.14 80.8299 256.719L83.3032 257.084ZM83.5285 255.215L86.0176 255.448L86.1053 254.513L83.6162 254.28L81.1271 254.046L81.0394 254.982L83.5285 255.215ZM83.6162 254.28L86.1053 254.513L86.193 253.578L83.7039 253.344L81.2148 253.111L81.1271 254.046L83.6162 254.28ZM83.7039 253.344L86.193 253.578C86.2462 253.011 86.3185 252.446 86.4099 251.885L83.9424 251.483L81.4749 251.081C81.3653 251.755 81.2786 252.431 81.2148 253.111L83.7039 253.344ZM83.9424 251.483L86.4099 251.885L86.5607 250.958L84.0932 250.557L81.6257 250.155L81.4749 251.081L83.9424 251.483ZM84.0932 250.557L86.5607 250.958L86.7115 250.032L84.244 249.63L81.7764 249.229L81.6257 250.155L84.0932 250.557ZM84.244 249.63L86.7115 250.032C86.7927 249.533 86.9098 249.04 87.0636 248.55L84.6786 247.801L82.2935 247.052C82.0689 247.766 81.8963 248.492 81.7764 249.229L84.244 249.63ZM84.6786 247.801L87.0636 248.55L87.3474 247.647L84.9624 246.898L82.5773 246.148L82.2935 247.052L84.6786 247.801ZM84.9624 246.898L87.3474 247.647L87.6312 246.744L85.2462 245.995L82.8611 245.245L82.5773 246.148L84.9624 246.898ZM85.2462 245.995L87.6312 246.744C87.8848 245.937 88.0318 245.108 88.0709 244.264L85.5735 244.148L83.0762 244.033C83.0571 244.446 82.9859 244.848 82.8611 245.245L85.2462 245.995ZM85.5735 244.148L88.0709 244.264L88.1144 243.321L85.6171 243.205L83.1198 243.09L83.0762 244.033L85.5735 244.148ZM85.6171 243.205L88.1144 243.321L88.158 242.378L85.6607 242.262L83.1633 242.147L83.1198 243.09L85.6171 243.205ZM85.6607 242.262L88.158 242.378C88.1835 241.827 88.2343 241.281 88.3104 240.741L85.8349 240.392L83.3593 240.043C83.2612 240.74 83.196 241.441 83.1633 242.147L85.6607 242.262ZM85.8349 240.392L88.3104 240.741L88.4411 239.813L85.9655 239.464L83.49 239.116L83.3593 240.043L85.8349 240.392ZM85.9655 239.464L88.4411 239.813L88.5717 238.886L86.0962 238.537L83.6206 238.188L83.49 239.116L85.9655 239.464ZM86.0962 238.537L88.5717 238.886C88.6564 238.285 88.7474 237.684 88.8448 237.084L86.3771 236.683L83.9094 236.283C83.8064 236.917 83.7101 237.553 83.6206 238.188L86.0962 238.537ZM86.3771 236.683L88.8448 237.084L88.9952 236.158L86.5275 235.757L84.0598 235.357L83.9094 236.283L86.3771 236.683ZM86.5275 235.757L88.9952 236.158L89.1455 235.232L86.6778 234.831L84.2101 234.431L84.0598 235.357L86.5275 235.757ZM86.6778 234.831L89.1455 235.232C89.2552 234.557 89.3409 233.878 89.4028 233.196L86.913 232.97L84.4233 232.744C84.372 233.309 84.301 233.871 84.2101 234.431L86.6778 234.831ZM86.913 232.97L89.4028 233.196L89.4876 232.262L86.9979 232.036L84.5081 231.81L84.4233 232.744L86.913 232.97ZM86.9979 232.036L89.4876 232.262L89.5725 231.327L87.0827 231.101L84.593 230.875L84.5081 231.81L86.9979 232.036ZM87.0827 231.101L89.5725 231.327C89.6179 230.827 89.7 230.333 89.8193 229.843L87.3902 229.251L84.9611 228.66C84.7836 229.39 84.6607 230.128 84.593 230.875L87.0827 231.101ZM87.3902 229.251L89.8193 229.843L90.0419 228.928L87.6128 228.337L85.1838 227.745L84.9611 228.66L87.3902 229.251ZM87.6128 228.337L90.0419 228.928L90.2646 228.013L87.8355 227.422L85.4064 226.831L85.1838 227.745L87.6128 228.337ZM87.8355 227.422L90.2646 228.013C90.4281 227.341 90.5655 226.665 90.6766 225.984L88.2092 225.581L85.7419 225.179C85.6515 225.732 85.5397 226.283 85.4064 226.831L87.8355 227.422ZM88.2092 225.581L90.6766 225.984L90.8277 225.058L88.3603 224.656L85.893 224.253L85.7419 225.179L88.2092 225.581ZM88.3603 224.656L90.8277 225.058L90.9788 224.133L88.5114 223.73L86.0441 223.327L85.893 224.253L88.3603 224.656ZM88.5114 223.73L90.9788 224.133C91.0741 223.549 91.1812 222.966 91.3 222.386L88.8508 221.885L86.4017 221.383C86.2694 222.029 86.1502 222.677 86.0441 223.327L88.5114 223.73ZM88.8508 221.885L91.3 222.386L91.4883 221.466L89.0392 220.965L86.59 220.463L86.4017 221.383L88.8508 221.885ZM89.0392 220.965L91.4883 221.466L91.6767 220.547L89.2275 220.045L86.7784 219.544L86.59 220.463L89.0392 220.965ZM89.2275 220.045L91.6767 220.547C91.8194 219.85 91.9261 219.147 91.9966 218.44L89.509 218.192L87.0213 217.944C86.9677 218.481 86.8868 219.014 86.7784 219.544L89.2275 220.045ZM89.509 218.192L91.9966 218.44L92.0898 217.506L89.6021 217.258L87.1145 217.01L87.0213 217.944L89.509 218.192ZM89.6021 217.258L92.0898 217.506L92.1829 216.572L89.6952 216.324L87.2076 216.076L87.1145 217.01L89.6021 217.258ZM89.6952 216.324L92.1829 216.572C92.2505 215.894 92.2957 215.214 92.3185 214.53L89.8199 214.447L87.3213 214.363C87.3021 214.937 87.2642 215.508 87.2076 216.076L89.6952 216.324ZM89.8199 214.447L92.3185 214.53L92.35 213.587L89.8514 213.503L87.3528 213.42L87.3213 214.363L89.8199 214.447ZM89.8514 213.503L92.35 213.587L92.3815 212.644L89.8829 212.56L87.3842 212.477L87.3528 213.42L89.8514 213.503ZM89.8829 212.56L92.3815 212.644C92.3987 212.127 92.4505 211.618 92.5366 211.114L90.0723 210.693L87.608 210.272C87.4835 211 87.409 211.736 87.3842 212.477L89.8829 212.56ZM90.0723 210.693L92.5366 211.114L92.6945 210.189L90.2302 209.768L87.7659 209.347L87.608 210.272L90.0723 210.693ZM90.2302 209.768L92.6945 210.189L92.8524 209.265L90.3881 208.844L87.9238 208.423L87.7659 209.347L90.2302 209.768ZM90.3881 208.844L92.8524 209.265C92.9007 208.982 92.9398 208.788 92.9686 208.665C92.9829 208.604 92.99 208.581 92.9887 208.586C92.9878 208.589 92.982 208.607 92.9706 208.638C92.96 208.666 92.9377 208.722 92.9012 208.796L90.6595 207.69L88.4179 206.583C88.242 206.939 88.1484 207.321 88.1013 207.521C88.0396 207.783 87.9808 208.089 87.9238 208.423L90.3881 208.844ZM90.6595 207.69L92.9012 208.796L93.0147 208.566L90.773 207.46L88.5313 206.353L88.4179 206.583L90.6595 207.69ZM90.773 207.46L92.928 208.727L93.1402 208.366L90.9852 207.099L88.8302 205.832L88.618 206.192L90.773 207.46ZM90.9852 207.099L93.4578 207.468L93.4725 207.37L91 207L88.5275 206.63L88.5127 206.729L90.9852 207.099Z" fill="black"/>
</svg>
